<svg width="14" height="15" viewBox="0 0 14 15" fill="none" xmlns="http://www.w3.org/2000/svg">
<path id="Icon" d="M6.38128 0.748959C6.72299 0.417014 7.27701 0.417014 7.61872 0.748959L11.1187 4.14896C11.4604 4.4809 11.4604 5.0191 11.1187 5.35104C10.777 5.68299 10.223 5.68299 9.88128 5.35104L7.875 3.40208V9.4C7.875 9.86944 7.48325 10.25 7 10.25C6.51675 10.25 6.125 9.86944 6.125 9.4V3.40208L4.11872 5.35104C3.77701 5.68299 3.22299 5.68299 2.88128 5.35104C2.53957 5.0191 2.53957 4.4809 2.88128 4.14896L6.38128 0.748959ZM0.875 10.25C1.35825 10.25 1.75 10.6306 1.75 11.1V12.8H12.25V11.1C12.25 10.6306 12.6418 10.25 13.125 10.25C13.6082 10.25 14 10.6306 14 11.1V12.8C14 13.7389 13.2165 14.5 12.25 14.5H1.75C0.783502 14.5 0 13.7389 0 12.8V11.1C0 10.6306 0.391751 10.25 0.875 10.25Z" fill="#828282"/>
</svg>
